<svg width="26" height="26" viewBox="0 0 26 26" fill="none" xmlns="http://www.w3.org/2000/svg">
<g clip-path="url(#clip0_206_5)">
<path fill-rule="evenodd" clip-rule="evenodd" d="M7.00055 1.99789C4.23882 1.99789 2 4.23672 2 6.99845V18.9995C2 21.7613 4.23882 24.0001 7.00055 24.0001H19.0017C21.7634 24.0001 24.0022 21.7613 24.0022 18.9995V6.99845C24.0022 4.23672 21.7634 1.99789 19.0017 1.99789H7.00055ZM0 6.99845C0 3.13215 3.13425 -0.00210571 7.00055 -0.00210571H19.0017C22.868 -0.00210571 26.0022 3.13215 26.0022 6.99845V18.9995C26.0022 22.8658 22.868 26.0001 19.0017 26.0001H7.00055C3.13425 26.0001 0 22.8658 0 18.9995V6.99845ZM13.6104 9.18781C12.8197 9.07055 12.0121 9.20561 11.3026 9.57378C10.5931 9.94195 10.0177 10.5245 9.65828 11.2385C9.29889 11.9525 9.1738 12.7617 9.30079 13.5509C9.42779 14.3401 9.80041 15.0692 10.3656 15.6345C10.9309 16.1997 11.66 16.5723 12.4492 16.6993C13.2384 16.8263 14.0476 16.7012 14.7616 16.3418C15.4756 15.9824 16.0582 15.4071 16.4263 14.6975C16.7945 13.988 16.9296 13.1804 16.8123 12.3897C16.6927 11.5831 16.3169 10.8364 15.7403 10.2598C15.1637 9.68325 14.417 9.30741 13.6104 9.18781ZM10.3815 7.79853C11.4644 7.23662 12.6969 7.03048 13.9038 7.20944C15.1348 7.39199 16.2745 7.96562 17.1545 8.84561C18.0345 9.7256 18.6081 10.8653 18.7907 12.0963C18.9696 13.3032 18.7635 14.5357 18.2016 15.6187C17.6397 16.7016 16.7506 17.5798 15.6608 18.1283C14.571 18.6768 13.336 18.8677 12.1315 18.6739C10.9269 18.4801 9.81414 17.9114 8.95143 17.0487C8.08873 16.186 7.52002 15.0732 7.32619 13.8687C7.13236 12.6641 7.32329 11.4291 7.87181 10.3393C8.42033 9.24953 9.29852 8.36045 10.3815 7.79853ZM19.6017 5.39839C19.0494 5.39839 18.6017 5.84611 18.6017 6.39839C18.6017 6.95068 19.0494 7.39839 19.6017 7.39839H19.6143C20.1666 7.39839 20.6143 6.95068 20.6143 6.39839C20.6143 5.84611 20.1666 5.39839 19.6143 5.39839H19.6017Z" fill="white"/>
</g>
<defs>
<clipPath id="clip0_206_5">
<rect width="26" height="26" fill="white"/>
</clipPath>
</defs>
</svg>
