<svg width="26" height="26" viewBox="0 0 26 26" fill="none" xmlns="http://www.w3.org/2000/svg">
<path d="M14.2005 7C15.046 7.19057 15.8231 7.66826 16.4323 8.37194C17.0414 9.07561 17.455 9.97327 17.62 10.95M14.2005 3C15.9572 3.22544 17.5954 4.13417 18.846 5.57701C20.0966 7.01984 20.8854 8.91101 21.0827 10.94M20.217 18.92V21.92C20.218 22.1985 20.1686 22.4742 20.072 22.7293C19.9755 22.9845 19.8338 23.2136 19.6561 23.4019C19.4785 23.5901 19.2687 23.7335 19.0403 23.8227C18.812 23.9119 18.5699 23.9451 18.3298 23.92C15.6659 23.5856 13.1071 22.5341 10.8589 20.85C8.76721 19.3147 6.99384 17.2662 5.66471 14.85C4.20167 12.2412 3.29118 9.27099 3.00703 6.18C2.98539 5.90347 3.01384 5.62476 3.09057 5.36162C3.16729 5.09849 3.2906 4.85669 3.45266 4.65162C3.61471 4.44655 3.81195 4.28271 4.03183 4.17052C4.2517 4.05833 4.48939 4.00026 4.72976 4H7.32684C7.74697 3.99522 8.15427 4.16708 8.47282 4.48353C8.79137 4.79999 8.99943 5.23945 9.05823 5.72C9.16785 6.68007 9.37114 7.62273 9.66422 8.53C9.78069 8.88792 9.8059 9.27691 9.73686 9.65088C9.66781 10.0248 9.50741 10.3681 9.27466 10.64L8.17522 11.91C9.40759 14.4135 11.2021 16.4864 13.3694 17.91L14.4688 16.64C14.7042 16.3711 15.0014 16.1858 15.3251 16.1061C15.6488 16.0263 15.9856 16.0555 16.2954 16.19C17.0809 16.5286 17.8969 16.7634 18.728 16.89C19.1486 16.9585 19.5326 17.2032 19.8072 17.5775C20.0817 17.9518 20.2276 18.4296 20.217 18.92Z" fill="white"/>
</svg>
